<svg width="17" height="17" viewBox="0 0 17 17" fill="none" xmlns="http://www.w3.org/2000/svg">
<path d="M2.1154 16.5C1.67116 16.5 1.29088 16.3418 0.974548 16.0255C0.658198 15.7091 0.500023 15.3288 0.500023 14.8846C0.500023 14.4404 0.658198 14.0601 0.974548 13.7438C1.29088 13.4274 1.67116 13.2693 2.1154 13.2693C2.55961 13.2693 2.9399 13.4274 3.25625 13.7438C3.57258 14.0601 3.73075 14.4404 3.73075 14.8846C3.73075 15.3288 3.57258 15.7091 3.25625 16.0255C2.9399 16.3418 2.55961 16.5 2.1154 16.5ZM14.2692 16.5C14.2692 14.582 13.9086 12.7912 13.1874 11.1274C12.4661 9.46366 11.4826 8.00889 10.2368 6.76311C8.99105 5.51734 7.53626 4.53384 5.8725 3.81261C4.20871 3.09137 2.41789 2.73076 0.500023 2.73076V0.500031C2.72566 0.500031 4.80417 0.917665 6.73557 1.75293C8.66697 2.58818 10.3596 3.73272 11.8134 5.18656C13.2673 6.64041 14.4118 8.33237 15.2471 10.2625C16.0823 12.1926 16.5 14.2717 16.5 16.5H14.2692ZM8.50002 16.5C8.50002 15.3833 8.29169 14.3458 7.87502 13.3875C7.45836 12.4291 6.88336 11.5833 6.15002 10.85C5.41669 10.1166 4.57086 9.54165 3.61252 9.12498C2.65419 8.70831 1.61669 8.49998 0.500023 8.49998V6.26926C1.92439 6.26926 3.25369 6.53618 4.48792 7.07003C5.72216 7.60388 6.80502 8.33503 7.73652 9.26348C8.66497 10.1942 9.39612 11.2762 9.92997 12.5094C10.4638 13.7427 10.7307 15.0728 10.7307 16.5H8.50002Z" fill="#98A4AE"/>
</svg>
