<svg width="20" height="20" viewBox="0 0 20 20" fill="none" xmlns="http://www.w3.org/2000/svg">
<path d="M15.6251 8.09167V7.50417C15.6251 4.28 13.1051 1.66667 10.0001 1.66667C6.89505 1.66667 4.37505 4.28 4.37505 7.50417V8.09167C4.37605 8.79296 4.17592 9.47983 3.79839 10.0708L2.87505 11.5083C2.03255 12.8208 2.67588 14.605 4.14172 15.02C7.97181 16.1058 12.0283 16.1058 15.8584 15.02C17.3242 14.605 17.9676 12.8208 17.1251 11.5092L16.2017 10.0717C15.8239 9.48076 15.6235 8.79388 15.6242 8.0925L15.6251 8.09167Z" stroke="#29343D" stroke-width="1.25"/>
<path opacity="0.5" d="M6.25 15.8333C6.79583 17.29 8.26833 18.3333 10 18.3333C11.7317 18.3333 13.2042 17.29 13.75 15.8333M10 5V8.33333" stroke="#29343D" stroke-width="1.25" stroke-linecap="round"/>
</svg>
