<svg width="20" height="20" viewBox="0 0 20 20" fill="none" xmlns="http://www.w3.org/2000/svg">
<path d="M10.0017 19.5C8.68774 19.5 7.45271 19.2506 6.29657 18.752C5.14042 18.2533 4.13474 17.5766 3.27952 16.7217C2.42429 15.8669 1.74723 14.8616 1.24835 13.706C0.749465 12.5504 0.500023 11.3156 0.500023 10.0017C0.500023 8.68775 0.749398 7.45271 1.24815 6.29658C1.7469 5.14043 2.42377 4.13475 3.27877 3.27953C4.13377 2.4243 5.13919 1.74724 6.29502 1.24836C7.45084 0.749473 8.68583 0.500031 10 0.500031C11.0534 0.500031 12.0501 0.658364 12.99 0.975031C13.93 1.2917 14.7923 1.73336 15.5769 2.30003L14.4923 3.40963C13.8462 2.96476 13.1462 2.61861 12.3925 2.37116C11.6388 2.12372 10.8413 2.00001 10 2.00001C7.78333 2.00001 5.89583 2.77917 4.3375 4.33751C2.77916 5.89584 2 7.78334 2 10C2 12.2167 2.77916 14.1042 4.3375 15.6625C5.89583 17.2208 7.78333 18 10 18C12.2167 18 14.1042 17.2208 15.6625 15.6625C17.2208 14.1042 18 12.2167 18 10C18 9.64872 17.9769 9.30131 17.9308 8.95776C17.8846 8.61422 17.8154 8.28022 17.7231 7.95576L18.9346 6.73463C19.1179 7.24873 19.258 7.77759 19.3548 8.32121C19.4516 8.86482 19.5 9.42442 19.5 10C19.5 11.3142 19.2506 12.5492 18.752 13.705C18.2533 14.8608 17.5766 15.8662 16.7217 16.7212C15.8669 17.5762 14.8616 18.2531 13.706 18.7519C12.5504 19.2506 11.3156 19.5 10.0017 19.5ZM8.58077 14.2538L4.67695 10.35L5.73077 9.29618L8.58077 12.1462L18.4461 2.26543L19.5 3.31926L8.58077 14.2538Z" fill="#98A4AE"/>
</svg>
