<svg width="20" height="19" viewBox="0 0 20 19" fill="none" xmlns="http://www.w3.org/2000/svg">
<path d="M5.1154 15.1153C4.86475 15.1153 4.65465 15.0305 4.4851 14.861C4.31555 14.6914 4.23078 14.4814 4.23078 14.2307V12.7307H16.6058L16.9231 13.0481V4H18.423C18.6737 4 18.8838 4.08477 19.0533 4.25432C19.2229 4.42387 19.3077 4.63396 19.3077 4.8846V18.6537L15.7692 15.1153H5.1154ZM0.692352 14.2692V1.38465C0.692352 1.134 0.777127 0.923899 0.946677 0.754349C1.11623 0.584799 1.32633 0.500023 1.57698 0.500023H14.0385C14.2891 0.500023 14.4992 0.584799 14.6688 0.754349C14.8383 0.923899 14.9231 1.134 14.9231 1.38465V9.84615C14.9231 10.0968 14.8383 10.3069 14.6688 10.4764C14.4992 10.646 14.2891 10.7307 14.0385 10.7307H4.23078L0.692352 14.2692ZM13.4231 9.23077V2H2.19233V9.92315L2.88468 9.23077H13.4231Z" fill="#98A4AE"/>
</svg>
