<svg width="25" height="25" viewBox="0 0 25 25" fill="none" xmlns="http://www.w3.org/2000/svg">
<path d="M9.50337 4.9091C9.70998 4.32356 10.0931 3.81653 10.6 3.45789C11.1068 3.09924 11.7125 2.90665 12.3334 2.90665C12.9543 2.90665 13.5599 3.09924 14.0668 3.45789C14.5736 3.81653 14.9568 4.32356 15.1634 4.9091M20.8334 6.9091H3.83337M19.1664 9.4091L18.7064 16.3091C18.5294 18.9631 18.4414 20.2901 17.5764 21.0991C16.7114 21.9091 15.3804 21.9091 12.7204 21.9091H11.9464C9.28637 21.9091 7.95537 21.9091 7.09037 21.0991C6.22537 20.2901 6.13637 18.9631 5.96037 16.3091L5.50037 9.4091M9.83337 11.9091L10.3334 16.9091M14.8334 11.9091L14.3334 16.9091" stroke="#FF6692" stroke-width="1.5" stroke-linecap="round"/>
</svg>
