<svg width="25" height="25" viewBox="0 0 25 25" fill="none" xmlns="http://www.w3.org/2000/svg">
<path d="M2.33337 12.9091C2.33337 17.6231 2.33337 19.9801 3.79737 21.4441C5.26337 22.9091 7.61937 22.9091 12.3334 22.9091C17.0474 22.9091 19.4044 22.9091 20.8684 21.4441C22.3334 19.9811 22.3334 17.6231 22.3334 12.9091V11.4091M13.8334 2.9091H12.3334C7.61937 2.9091 5.26237 2.9091 3.79737 4.3731C2.82437 5.3471 2.49737 6.7161 2.38837 8.9091" stroke="#2555E7" stroke-width="1.5" stroke-linecap="round"/>
<path d="M16.9853 4.3641L17.6343 3.7151C18.1507 3.19886 18.851 2.90889 19.5812 2.90898C20.3113 2.90908 21.0116 3.19923 21.5278 3.7156C22.0441 4.23198 22.334 4.93228 22.3339 5.66246C22.3338 6.39263 22.0437 7.09286 21.5273 7.6091L20.8773 8.2581C20.8773 8.2581 19.4993 8.1771 18.2833 6.9601C17.0663 5.7441 16.9853 4.3651 16.9853 4.3651L11.0203 10.3291C10.6163 10.7331 10.4143 10.9351 10.2403 11.1581C10.0353 11.4201 9.86031 11.7051 9.71631 12.0061C9.59531 12.2611 9.50531 12.5321 9.32431 13.0741L8.74531 14.8091M8.74531 14.8091L8.37131 15.9311C8.32733 16.062 8.32072 16.2025 8.35223 16.3369C8.38374 16.4713 8.45212 16.5942 8.54969 16.6919C8.64725 16.7896 8.77013 16.8581 8.9045 16.8898C9.03887 16.9214 9.17941 16.9149 9.31031 16.8711L10.4333 16.4971M8.74531 14.8091L10.4333 16.4971M20.8783 8.2571L17.8953 11.2391M14.9133 14.2221C14.5093 14.6261 14.3073 14.8281 14.0843 15.0021C13.8215 15.207 13.5372 15.3827 13.2363 15.5261C12.9813 15.6471 12.7103 15.7371 12.1683 15.9181L10.4333 16.4971" stroke="#2555E7" stroke-width="1.5" stroke-linecap="round"/>
</svg>
