<svg width="11" height="12" viewBox="0 0 11 12" fill="none" xmlns="http://www.w3.org/2000/svg">
<path d="M10.1999 1.36378e-05C10.3404 -3.31789e-05 10.4764 0.0491796 10.5843 0.139081C10.6921 0.228983 10.7651 0.353877 10.7903 0.492013L10.7999 0.600014V11.4C10.8002 11.5499 10.7444 11.6946 10.6433 11.8054C10.5423 11.9162 10.4035 11.9851 10.2542 11.9987C10.1048 12.0122 9.95586 11.9694 9.83655 11.8785C9.71725 11.7877 9.63626 11.6556 9.60955 11.508L9.59995 11.4V0.600014C9.59995 0.440884 9.66316 0.288272 9.77569 0.17575C9.88821 0.0632279 10.0408 1.36378e-05 10.1999 1.36378e-05ZM0.775149 0.175214C0.874576 0.0760033 1.00566 0.0148191 1.14556 0.00232019C1.28546 -0.0101787 1.42531 0.0268002 1.54075 0.106814L1.62475 0.175214L7.02475 5.57521C7.12396 5.67464 7.18514 5.80572 7.19764 5.94562C7.21014 6.08552 7.17316 6.22538 7.09315 6.34081L7.02475 6.42481L1.62475 11.8248C1.51892 11.9311 1.37712 11.9939 1.22728 12.0009C1.07744 12.0078 0.930444 11.9584 0.81525 11.8623C0.700056 11.7662 0.625024 11.6305 0.604941 11.4818C0.584857 11.3332 0.62118 11.1824 0.70675 11.0592L0.775149 10.9752L5.75155 6.00001L0.775149 1.02481C0.719273 0.969079 0.674942 0.902868 0.644694 0.829974C0.614446 0.75708 0.598877 0.678934 0.598877 0.600014C0.598877 0.521093 0.614446 0.442947 0.644694 0.370053C0.674942 0.297159 0.719273 0.230948 0.775149 0.175214Z" fill="#526B7A"/>
</svg>
