<svg width="11" height="12" viewBox="0 0 11 12" fill="none" xmlns="http://www.w3.org/2000/svg">
<path d="M1.19998 1.36378e-05C1.05955 -3.31789e-05 0.923548 0.0491796 0.815666 0.139081C0.707784 0.228983 0.634854 0.353877 0.609576 0.492013L0.599977 0.600014V11.4C0.599701 11.5499 0.655571 11.6946 0.756587 11.8054C0.857602 11.9162 0.99644 11.9851 1.14576 11.9987C1.29508 12.0122 1.44407 11.9694 1.56337 11.8785C1.68268 11.7877 1.76366 11.6556 1.79038 11.508L1.79998 11.4V0.600014C1.79998 0.440884 1.73676 0.288272 1.62424 0.17575C1.51172 0.0632279 1.35911 1.36378e-05 1.19998 1.36378e-05ZM10.6248 0.175214C10.5254 0.0760033 10.3943 0.0148191 10.2544 0.00232019C10.1145 -0.0101787 9.97462 0.0268002 9.85918 0.106814L9.77518 0.175214L4.37518 5.57521C4.27597 5.67464 4.21478 5.80572 4.20228 5.94562C4.18979 6.08552 4.22676 6.22538 4.30678 6.34081L4.37518 6.42481L9.77518 11.8248C9.881 11.9311 10.0228 11.9939 10.1726 12.0009C10.3225 12.0078 10.4695 11.9584 10.5847 11.8623C10.6999 11.7662 10.7749 11.6305 10.795 11.4818C10.8151 11.3332 10.7787 11.1824 10.6932 11.0592L10.6248 10.9752L5.64838 6.00001L10.6248 1.02481C10.6807 0.969079 10.725 0.902868 10.7552 0.829974C10.7855 0.75708 10.801 0.678934 10.801 0.600014C10.801 0.521093 10.7855 0.442947 10.7552 0.370053C10.725 0.297159 10.6807 0.230948 10.6248 0.175214Z" fill="#98A4AE"/>
</svg>
