<svg width="18" height="18" viewBox="0 0 18 18" fill="none" xmlns="http://www.w3.org/2000/svg">
<path opacity="0.5" d="M0.666748 9.17C0.666748 7.2625 0.666748 6.30916 1.10008 5.51916C1.53175 4.72833 2.32258 4.23833 3.90341 3.25666L5.57008 2.2225C7.24091 1.185 8.07675 0.666664 9.00008 0.666664C9.92342 0.666664 10.7584 1.185 12.4301 2.2225L14.0967 3.25666C15.6776 4.23833 16.4684 4.72833 16.9009 5.51916C17.3334 6.30916 17.3334 7.2625 17.3334 9.16916V10.4375C17.3334 13.6875 17.3334 15.3133 16.3567 16.3233C15.3809 17.3333 13.8092 17.3333 10.6667 17.3333H7.33342C4.19091 17.3333 2.61925 17.3333 1.64341 16.3233C0.666748 15.3133 0.666748 13.6883 0.666748 10.4375V9.17Z" stroke="#29343D" stroke-width="1.25"/>
<path d="M9 11.5V14" stroke="#29343D" stroke-width="1.25" stroke-linecap="round"/>
</svg>
