<svg width="20" height="20" viewBox="0 0 20 20" fill="none" xmlns="http://www.w3.org/2000/svg">
<path d="M5.50003 17.6923V7.29233C5.50003 6.79361 5.67919 6.37022 6.03753 6.02215C6.39586 5.67407 6.82438 5.50003 7.3231 5.50003H17.6923C18.191 5.50003 18.617 5.67664 18.9702 6.02985C19.3234 6.38305 19.5 6.80901 19.5 7.30773V14.7885L14.7885 19.5H7.30772C6.80901 19.5 6.38305 19.3234 6.02985 18.9702C5.67663 18.617 5.50003 18.191 5.50003 17.6923ZM0.525025 4.4231C0.431442 3.92439 0.528558 3.47503 0.816375 3.07503C1.10419 2.67503 1.49746 2.42824 1.99618 2.33465L12.2308 0.525029C12.7295 0.431445 13.1788 0.528563 13.5788 0.81638C13.9788 1.1042 14.2256 1.49746 14.3192 1.99618L14.55 3.30773H13.0192L12.825 2.21155C12.8122 2.14104 12.7737 2.08495 12.7096 2.04328C12.6455 2.00161 12.575 1.98719 12.498 2L2.25962 3.81923C2.16987 3.83205 2.10257 3.87371 2.0577 3.94423C2.01282 4.01475 1.99679 4.09488 2.00962 4.18463L3.30773 11.5175V15.973C3.06029 15.8423 2.84875 15.6631 2.6731 15.4356C2.49747 15.208 2.38465 14.9487 2.33465 14.6577L0.525025 4.4231ZM7 7.30773V17.6923C7 17.782 7.02885 17.8558 7.08655 17.9135C7.14425 17.9712 7.21797 18 7.30772 18H14V14H18V7.30773C18 7.21798 17.9712 7.14425 17.9135 7.08655C17.8558 7.02885 17.782 7 17.6923 7H7.30772C7.21797 7 7.14425 7.02885 7.08655 7.08655C7.02885 7.14425 7 7.21798 7 7.30773Z" fill="#29343D"/>
</svg>
