<svg width="19" height="18" viewBox="0 0 19 18" fill="none" xmlns="http://www.w3.org/2000/svg">
<path d="M11.4061 17.5C10.6803 17.5 10.0625 17.2459 9.5529 16.7378C9.04328 16.2297 8.78848 15.6127 8.78848 14.8869C8.78848 14.161 9.04253 13.5433 9.55062 13.0337C10.0587 12.5241 10.6757 12.2693 11.4016 12.2693C12.1274 12.2693 12.7452 12.5233 13.2548 13.0314C13.7644 13.5395 14.0192 14.1565 14.0192 14.8824C14.0192 15.6082 13.7652 16.2259 13.2571 16.7356C12.749 17.2452 12.132 17.5 11.4061 17.5ZM11.4039 16C11.7128 16 11.976 15.8913 12.1933 15.674C12.4106 15.4567 12.5192 15.1936 12.5192 14.8846C12.5192 14.5756 12.4106 14.3125 12.1933 14.0952C11.976 13.8779 11.7128 13.7692 11.4039 13.7692C11.0949 13.7692 10.8317 13.8779 10.6144 14.0952C10.3971 14.3125 10.2885 14.5756 10.2885 14.8846C10.2885 15.1936 10.3971 15.4567 10.6144 15.674C10.8317 15.8913 11.0949 16 11.4039 16ZM13.5 10.5C12.1013 10.5 10.9183 10.0163 9.95098 9.04903C8.98368 8.08172 8.50003 6.89871 8.50003 5.50001C8.50003 4.10131 8.98368 2.9183 9.95098 1.95098C10.9183 0.983681 12.1013 0.500031 13.5 0.500031C14.8987 0.500031 16.0817 0.983681 17.049 1.95098C18.0163 2.9183 18.5 4.10131 18.5 5.50001C18.5 6.89871 18.0163 8.08172 17.049 9.04903C16.0817 10.0163 14.8987 10.5 13.5 10.5ZM13.5 9.00001C14.4833 9.00001 15.3125 8.66251 15.9875 7.98751C16.6625 7.31251 17 6.48334 17 5.50001C17 4.51667 16.6625 3.68751 15.9875 3.01251C15.3125 2.33751 14.4833 2.00001 13.5 2.00001C12.5167 2.00001 11.6875 2.33751 11.0125 3.01251C10.3375 3.68751 10 4.51667 10 5.50001C10 6.48334 10.3375 7.31251 11.0125 7.98751C11.6875 8.66251 12.5167 9.00001 13.5 9.00001ZM4.1154 14.6154C3.12117 14.6154 2.27005 14.2614 1.56205 13.5534C0.854033 12.8453 0.500025 11.9942 0.500025 11C0.500025 10.0058 0.854033 9.15467 1.56205 8.44666C2.27005 7.73866 3.12117 7.38466 4.1154 7.38466C5.10962 7.38466 5.96073 7.73866 6.66875 8.44666C7.37675 9.15467 7.73075 10.0058 7.73075 11C7.73075 11.9942 7.37675 12.8453 6.66875 13.5534C5.96073 14.2614 5.10962 14.6154 4.1154 14.6154ZM4.11572 13.1154C4.69756 13.1154 5.19553 12.9082 5.60963 12.4939C6.02373 12.0796 6.23077 11.5815 6.23077 10.9997C6.23077 10.4178 6.02362 9.91988 5.6093 9.50578C5.19497 9.09167 4.69688 8.88461 4.11505 8.88461C3.53323 8.88461 3.03527 9.09177 2.62115 9.50611C2.20705 9.92044 2 10.4185 2 11.0004C2 11.5822 2.20717 12.0801 2.6215 12.4942C3.03583 12.9083 3.53391 13.1154 4.11572 13.1154Z" fill="#29343D"/>
</svg>
