<svg width="9" height="16" viewBox="0 0 9 16" fill="none" xmlns="http://www.w3.org/2000/svg">
<path d="M8.531 0.718998C8.60084 0.788666 8.65626 0.87143 8.69407 0.962547C8.73188 1.05367 8.75134 1.15135 8.75134 1.25C8.75134 1.34865 8.73188 1.44633 8.69407 1.53745C8.65626 1.62857 8.60084 1.71133 8.531 1.781L2.3105 8L8.531 14.219C8.67183 14.3598 8.75094 14.5508 8.75094 14.75C8.75094 14.9492 8.67183 15.1402 8.531 15.281C8.39017 15.4218 8.19916 15.5009 8 15.5009C7.80083 15.5009 7.60983 15.4218 7.469 15.281L0.718997 8.531C0.649153 8.46133 0.593738 8.37857 0.555928 8.28745C0.518119 8.19633 0.498657 8.09865 0.498657 8C0.498657 7.90135 0.518119 7.80367 0.555928 7.71255C0.593738 7.62143 0.649153 7.53867 0.718997 7.469L7.469 0.718998C7.53867 0.649153 7.62143 0.593739 7.71255 0.555929C7.80367 0.51812 7.90135 0.498657 8 0.498657C8.09865 0.498657 8.19633 0.51812 8.28745 0.555929C8.37857 0.593739 8.46133 0.649153 8.531 0.718998Z" fill="#98A4AE"/>
</svg>
