<svg width="146" height="48" viewBox="0 0 146 48" fill="none" xmlns="http://www.w3.org/2000/svg">
<g clip-path="url(#clip0_20_1732)">
<path fill-rule="evenodd" clip-rule="evenodd" d="M0 20.4444V31.8222H3.55556C3.92908 31.8222 4.29896 31.8958 4.6441 32.0388C4.98915 32.1817 5.30278 32.3912 5.56684 32.6554C5.83099 32.9195 6.04054 33.2331 6.18351 33.5782C6.32639 33.9233 6.4 34.2931 6.4 34.6667V38.2222H14.9333L25.6 27.5556V16.1778H22.0444C21.6709 16.1778 21.301 16.1042 20.9559 15.9613C20.6108 15.8183 20.2972 15.6088 20.0331 15.3447C19.769 15.0805 19.5595 14.7669 19.4165 14.4219C19.2736 14.0768 19.2 13.7069 19.2 13.3333V9.77778H10.6667L0 20.4444ZM12.0889 31.1111H7.11111V23.2889L13.5111 16.8889H18.4889V24.7111L12.0889 31.1111Z" fill="#2555E7"/>
</g>
<path d="M37.008 30V18.8H41.84C42.544 18.8 43.168 18.96 43.712 19.28C44.2667 19.6 44.704 20.0373 45.024 20.592C45.3547 21.1467 45.52 21.7707 45.52 22.464C45.52 23.1893 45.3547 23.84 45.024 24.416C44.704 24.9813 44.2667 25.4293 43.712 25.76C43.168 26.0907 42.544 26.256 41.84 26.256H39.728V30H37.008ZM39.68 23.872H41.456C41.6907 23.872 41.904 23.8133 42.096 23.696C42.288 23.5787 42.4427 23.4187 42.56 23.216C42.6773 23.0133 42.736 22.7787 42.736 22.512C42.736 22.2347 42.6773 22 42.56 21.808C42.4427 21.616 42.288 21.4667 42.096 21.36C41.904 21.2533 41.6907 21.2 41.456 21.2H39.68V23.872ZM47.3298 30V21.504H49.7618L49.8738 24.272L49.3938 23.744C49.5218 23.2853 49.7298 22.8747 50.0178 22.512C50.3164 22.1493 50.6631 21.8613 51.0578 21.648C51.4524 21.4347 51.8738 21.328 52.3218 21.328C52.5138 21.328 52.6898 21.344 52.8498 21.376C53.0204 21.408 53.1751 21.4453 53.3138 21.488L52.6098 24.32C52.4924 24.2453 52.3324 24.1867 52.1298 24.144C51.9378 24.0907 51.7351 24.064 51.5218 24.064C51.2871 24.064 51.0684 24.1067 50.8658 24.192C50.6631 24.2667 50.4924 24.3787 50.3538 24.528C50.2151 24.6773 50.1031 24.8533 50.0178 25.056C49.9431 25.2587 49.9058 25.488 49.9058 25.744V30H47.3298ZM58.2516 30.16C57.3663 30.16 56.577 29.968 55.8836 29.584C55.201 29.2 54.657 28.6773 54.2516 28.016C53.857 27.3547 53.6596 26.5973 53.6596 25.744C53.6596 24.8907 53.857 24.1333 54.2516 23.472C54.657 22.8107 55.201 22.288 55.8836 21.904C56.577 21.52 57.3663 21.328 58.2516 21.328C59.137 21.328 59.921 21.52 60.6036 21.904C61.297 22.288 61.841 22.8107 62.2356 23.472C62.6303 24.1333 62.8276 24.8907 62.8276 25.744C62.8276 26.5973 62.6303 27.3547 62.2356 28.016C61.841 28.6773 61.297 29.2 60.6036 29.584C59.921 29.968 59.137 30.16 58.2516 30.16ZM58.2516 27.952C58.6356 27.952 58.977 27.856 59.2756 27.664C59.5743 27.472 59.809 27.2107 59.9796 26.88C60.1503 26.5493 60.2303 26.1707 60.2196 25.744C60.2303 25.3173 60.1503 24.9387 59.9796 24.608C59.809 24.2667 59.5743 24 59.2756 23.808C58.977 23.616 58.6356 23.52 58.2516 23.52C57.8676 23.52 57.521 23.616 57.2116 23.808C56.913 24 56.6783 24.2667 56.5076 24.608C56.337 24.9387 56.257 25.3173 56.2676 25.744C56.257 26.1707 56.337 26.5493 56.5076 26.88C56.6783 27.2107 56.913 27.472 57.2116 27.664C57.521 27.856 57.8676 27.952 58.2516 27.952ZM67.7176 30.176C66.9816 30.176 66.3256 29.9893 65.7496 29.616C65.1843 29.232 64.7363 28.7093 64.4056 28.048C64.075 27.376 63.9096 26.6133 63.9096 25.76C63.9096 24.9067 64.075 24.1493 64.4056 23.488C64.7363 22.816 65.1896 22.288 65.7656 21.904C66.3416 21.52 67.003 21.328 67.7496 21.328C68.1336 21.328 68.5016 21.3867 68.8536 21.504C69.2056 21.6213 69.5256 21.7813 69.8136 21.984C70.1016 22.1867 70.3363 22.4213 70.5176 22.688C70.699 22.944 70.8056 23.2107 70.8376 23.488L70.2296 23.632V18.16H72.8056V30H70.4216L70.2776 28.064L70.7896 28.144C70.7576 28.4107 70.651 28.6667 70.4696 28.912C70.299 29.1573 70.075 29.376 69.7976 29.568C69.5203 29.7493 69.2003 29.8933 68.8376 30C68.4856 30.1173 68.1123 30.176 67.7176 30.176ZM68.3736 28.048C68.7683 28.048 69.1096 27.952 69.3976 27.76C69.6856 27.568 69.9043 27.3013 70.0536 26.96C70.2136 26.6187 70.2936 26.2187 70.2936 25.76C70.2936 25.2907 70.2136 24.8853 70.0536 24.544C69.9043 24.2027 69.6856 23.936 69.3976 23.744C69.1096 23.552 68.7683 23.456 68.3736 23.456C67.979 23.456 67.6376 23.552 67.3496 23.744C67.0723 23.936 66.8536 24.2027 66.6936 24.544C66.5336 24.8853 66.4536 25.2907 66.4536 25.76C66.4536 26.2187 66.5336 26.6187 66.6936 26.96C66.8536 27.3013 67.0723 27.568 67.3496 27.76C67.6376 27.952 67.979 28.048 68.3736 28.048ZM78.1164 30.176C77.487 30.176 76.9484 30.0427 76.5004 29.776C76.063 29.4987 75.7217 29.104 75.4764 28.592C75.2417 28.08 75.1244 27.4667 75.1244 26.752V21.504H77.7004V26.4C77.7004 26.7413 77.7537 27.0347 77.8604 27.28C77.967 27.5253 78.127 27.7173 78.3404 27.856C78.5537 27.984 78.8097 28.048 79.1084 28.048C79.3324 28.048 79.535 28.0107 79.7164 27.936C79.9084 27.8613 80.0684 27.76 80.1964 27.632C80.335 27.4933 80.4417 27.3387 80.5164 27.168C80.591 26.9867 80.6284 26.7893 80.6284 26.576V21.504H83.2044V30H80.7884L80.6764 28.256L81.1564 28.064C81.0284 28.4693 80.815 28.832 80.5164 29.152C80.2177 29.4613 79.8604 29.712 79.4444 29.904C79.0284 30.0853 78.5857 30.176 78.1164 30.176ZM89.214 30.16C88.3927 30.16 87.6567 29.968 87.006 29.584C86.3553 29.2 85.838 28.6773 85.454 28.016C85.0807 27.344 84.894 26.5867 84.894 25.744C84.894 24.9013 85.0807 24.1493 85.454 23.488C85.838 22.816 86.3553 22.288 87.006 21.904C87.6567 21.52 88.3927 21.328 89.214 21.328C89.9713 21.328 90.6647 21.4613 91.294 21.728C91.934 21.9947 92.4407 22.368 92.814 22.848L91.422 24.512C91.2727 24.3413 91.0967 24.1813 90.894 24.032C90.6913 23.8827 90.4673 23.7653 90.222 23.68C89.9767 23.5947 89.7207 23.552 89.454 23.552C89.0487 23.552 88.6913 23.648 88.382 23.84C88.0727 24.0213 87.8327 24.2773 87.662 24.608C87.4913 24.9387 87.406 25.3173 87.406 25.744C87.406 26.1493 87.4913 26.5173 87.662 26.848C87.8433 27.1787 88.0887 27.44 88.398 27.632C88.7073 27.824 89.0593 27.92 89.454 27.92C89.7313 27.92 89.9873 27.888 90.222 27.824C90.4567 27.7493 90.67 27.6427 90.862 27.504C91.0647 27.3653 91.2513 27.1947 91.422 26.992L92.798 28.672C92.4353 29.1307 91.9287 29.4933 91.278 29.76C90.638 30.0267 89.95 30.16 89.214 30.16ZM94.9088 30V19.36H97.4688V30H94.9088ZM93.4048 23.744V21.504H99.1168V23.744H93.4048ZM100.58 30V21.504H103.012L103.092 23.232L102.58 23.424C102.697 23.04 102.905 22.6933 103.204 22.384C103.513 22.064 103.881 21.808 104.308 21.616C104.734 21.424 105.182 21.328 105.652 21.328C106.292 21.328 106.83 21.4613 107.268 21.728C107.705 21.984 108.036 22.3733 108.26 22.896C108.484 23.408 108.596 24.0373 108.596 24.784V30H106.02V24.992C106.02 24.6507 105.972 24.368 105.876 24.144C105.78 23.92 105.63 23.7547 105.428 23.648C105.236 23.5307 104.996 23.4773 104.708 23.488C104.484 23.488 104.276 23.5253 104.084 23.6C103.892 23.664 103.726 23.7653 103.588 23.904C103.449 24.032 103.337 24.1813 103.252 24.352C103.177 24.5227 103.14 24.7093 103.14 24.912V30H101.876C101.577 30 101.321 30 101.108 30C100.894 30 100.718 30 100.58 30ZM113.872 30.144C113.157 30.144 112.517 29.9573 111.952 29.584C111.397 29.2 110.955 28.6773 110.624 28.016C110.293 27.344 110.128 26.5867 110.128 25.744C110.128 24.88 110.293 24.1173 110.624 23.456C110.955 22.7947 111.408 22.2773 111.984 21.904C112.56 21.52 113.216 21.328 113.952 21.328C114.357 21.328 114.725 21.3867 115.056 21.504C115.397 21.6213 115.696 21.7867 115.952 22C116.208 22.2027 116.427 22.4427 116.608 22.72C116.789 22.9867 116.923 23.2747 117.008 23.584L116.48 23.52V21.504H119.024V30H116.432V27.952L117.008 27.936C116.923 28.2347 116.784 28.5173 116.592 28.784C116.4 29.0507 116.165 29.2853 115.888 29.488C115.611 29.6907 115.301 29.8507 114.96 29.968C114.619 30.0853 114.256 30.144 113.872 30.144ZM114.576 27.984C114.971 27.984 115.312 27.8933 115.6 27.712C115.888 27.5307 116.112 27.2747 116.272 26.944C116.432 26.6027 116.512 26.2027 116.512 25.744C116.512 25.2853 116.432 24.8907 116.272 24.56C116.112 24.2187 115.888 23.9573 115.6 23.776C115.312 23.584 114.971 23.488 114.576 23.488C114.192 23.488 113.856 23.584 113.568 23.776C113.291 23.9573 113.072 24.2187 112.912 24.56C112.752 24.8907 112.672 25.2853 112.672 25.744C112.672 26.2027 112.752 26.6027 112.912 26.944C113.072 27.2747 113.291 27.5307 113.568 27.712C113.856 27.8933 114.192 27.984 114.576 27.984ZM121.267 30V21.504H123.699L123.779 23.04L123.443 23.056C123.571 22.7787 123.731 22.5333 123.923 22.32C124.126 22.1067 124.35 21.9307 124.595 21.792C124.851 21.6427 125.112 21.5307 125.379 21.456C125.656 21.3813 125.934 21.344 126.211 21.344C126.627 21.344 127.006 21.408 127.347 21.536C127.688 21.664 127.987 21.872 128.243 22.16C128.499 22.4373 128.702 22.816 128.851 23.296L128.451 23.264L128.579 23.008C128.718 22.752 128.894 22.5227 129.107 22.32C129.331 22.1067 129.576 21.9307 129.843 21.792C130.11 21.6427 130.387 21.5307 130.675 21.456C130.963 21.3813 131.24 21.344 131.507 21.344C132.179 21.344 132.739 21.4773 133.187 21.744C133.635 22 133.971 22.3893 134.195 22.912C134.43 23.4347 134.547 24.0693 134.547 24.816V30H131.971V25.024C131.971 24.6827 131.923 24.4 131.827 24.176C131.731 23.952 131.587 23.7867 131.395 23.68C131.214 23.5627 130.984 23.504 130.707 23.504C130.483 23.504 130.275 23.5413 130.083 23.616C129.902 23.6907 129.742 23.792 129.603 23.92C129.475 24.048 129.374 24.1973 129.299 24.368C129.224 24.5387 129.187 24.7307 129.187 24.944V30H126.611V25.008C126.611 24.688 126.563 24.416 126.467 24.192C126.371 23.968 126.227 23.7973 126.035 23.68C125.843 23.5627 125.619 23.504 125.363 23.504C125.139 23.504 124.931 23.5413 124.739 23.616C124.558 23.6907 124.398 23.792 124.259 23.92C124.131 24.048 124.03 24.1973 123.955 24.368C123.88 24.5387 123.843 24.7253 123.843 24.928V30H121.267ZM140.722 30.16C139.783 30.16 138.967 29.9733 138.274 29.6C137.58 29.216 137.042 28.6987 136.658 28.048C136.274 27.3867 136.082 26.6347 136.082 25.792C136.082 25.1413 136.188 24.544 136.402 24C136.615 23.456 136.914 22.9867 137.298 22.592C137.682 22.1867 138.135 21.8773 138.658 21.664C139.191 21.44 139.772 21.328 140.402 21.328C140.999 21.328 141.543 21.4347 142.034 21.648C142.535 21.8613 142.967 22.16 143.33 22.544C143.692 22.928 143.97 23.3813 144.162 23.904C144.354 24.4267 144.439 24.9973 144.418 25.616L144.402 26.304H137.634L137.266 24.864H142.322L142.05 25.168V24.848C142.028 24.5813 141.943 24.3467 141.794 24.144C141.655 23.9307 141.468 23.7653 141.234 23.648C140.999 23.5307 140.732 23.472 140.434 23.472C140.018 23.472 139.66 23.5573 139.362 23.728C139.074 23.888 138.855 24.128 138.706 24.448C138.556 24.7573 138.482 25.1413 138.482 25.6C138.482 26.0693 138.578 26.48 138.77 26.832C138.972 27.1733 139.26 27.44 139.634 27.632C140.018 27.824 140.471 27.92 140.994 27.92C141.356 27.92 141.676 27.8667 141.954 27.76C142.242 27.6533 142.551 27.472 142.882 27.216L144.082 28.912C143.751 29.2 143.399 29.4347 143.026 29.616C142.652 29.7973 142.268 29.9307 141.874 30.016C141.49 30.112 141.106 30.16 140.722 30.16Z" fill="black"/>
<defs>
<clipPath id="clip0_20_1732">
<rect width="25.6" height="28.4444" fill="white" transform="translate(0 9.77778)"/>
</clipPath>
</defs>
</svg>
