<svg width="5" height="5" viewBox="0 0 10 10" fill="none" xmlns="http://www.w3.org/2000/svg">
<path d="M5.00049 0.832031C5.02248 0.832074 5.04403 0.836465 5.06396 0.844727L5.11768 0.880859C5.14893 0.912116 5.1665 0.954821 5.1665 0.999023V4.83203H9.00049C9.0445 4.83212 9.08651 4.84978 9.11768 4.88086C9.14893 4.91212 9.1665 4.95482 9.1665 4.99902C9.16642 5.04311 9.14886 5.08503 9.11768 5.11621C9.0865 5.14739 9.04457 5.16495 9.00049 5.16504H5.1665V8.99902C5.16646 9.02106 5.1621 9.04253 5.15381 9.0625L5.11768 9.11621C5.0865 9.14739 5.04457 9.16495 5.00049 9.16504C4.97823 9.16504 4.95618 9.16075 4.93604 9.15234L4.88232 9.11621C4.85125 9.08505 4.83358 9.04303 4.8335 8.99902V5.16504H1.00049C0.956286 5.16504 0.913581 5.14747 0.882324 5.11621C0.851246 5.08505 0.833582 5.04303 0.833496 4.99902C0.833496 4.95482 0.851068 4.91212 0.882324 4.88086C0.913581 4.8496 0.956286 4.83203 1.00049 4.83203H4.8335V0.999023C4.8335 0.976812 4.83781 0.954684 4.84619 0.93457L4.88232 0.880859C4.89787 0.865309 4.91612 0.853021 4.93604 0.844727L5.00049 0.832031Z" fill="#29343D" stroke="#635BFF"/>
</svg>
