<svg width="18" height="21" viewBox="0 0 18 21" fill="none" xmlns="http://www.w3.org/2000/svg">
<path d="M9 20.8077C7.83847 19.7833 6.53078 18.9888 5.07695 18.424C3.6231 17.8593 2.09746 17.5513 0.500023 17.5V7.32696C2.10644 7.37183 3.64137 7.70645 5.10482 8.33081C6.56827 8.95518 7.86666 9.79107 9 10.8385C10.1333 9.79107 11.4317 8.95518 12.8952 8.33081C14.3586 7.70645 15.8936 7.37183 17.5 7.32696V17.5C15.8923 17.5513 14.3641 17.8593 12.9154 18.424C11.4667 18.9888 10.1615 19.7833 9 20.8077ZM9 18.8808C10.05 18.1039 11.1667 17.4807 12.35 17.0113C13.5333 16.5418 14.75 16.2317 16 16.0808V8.98846C14.7385 9.20513 13.517 9.63461 12.3356 10.2769C11.1542 10.9192 10.0423 11.7615 9 12.8038C7.9577 11.7615 6.84584 10.9192 5.66442 10.2769C4.48302 9.63461 3.26155 9.20513 2 8.98846V16.0808C3.25 16.2317 4.46666 16.5418 5.65 17.0113C6.83333 17.4807 7.95 18.1039 9 18.8808ZM9 7.78846C8.00578 7.78846 7.15466 7.43446 6.44665 6.72644C5.73865 6.01844 5.38465 5.16733 5.38465 4.17311C5.38465 3.17888 5.73865 2.32776 6.44665 1.61976C7.15466 0.911747 8.00578 0.557739 9 0.557739C9.99422 0.557739 10.8453 0.911747 11.5533 1.61976C12.2613 2.32776 12.6153 3.17888 12.6153 4.17311C12.6153 5.16733 12.2613 6.01844 11.5533 6.72644C10.8453 7.43446 9.99422 7.78846 9 7.78846ZM9.00035 6.28849C9.58217 6.28849 10.0801 6.08132 10.4942 5.66699C10.9083 5.25267 11.1154 4.7546 11.1154 4.17276C11.1154 3.59093 10.9082 3.09296 10.4939 2.67886C10.0796 2.26476 9.58148 2.05771 8.99965 2.05771C8.41783 2.05771 7.91987 2.26488 7.50577 2.67921C7.09166 3.09355 6.8846 3.59162 6.8846 4.17344C6.8846 4.75527 7.09176 5.25324 7.5061 5.66734C7.92043 6.08144 8.41852 6.28849 9.00035 6.28849Z" fill="#98A4AE"/>
</svg>
