<svg width="8" height="16" viewBox="0 0 8 16" fill="none" xmlns="http://www.w3.org/2000/svg">
<path d="M0.175195 0.976383C0.287552 0.863741 0.440048 0.800335 0.599147 0.80011C0.758245 0.799885 0.910919 0.862859 1.02359 0.975183L7.6044 7.53318C7.66589 7.5945 7.71469 7.66734 7.74798 7.74755C7.78128 7.82775 7.79841 7.91374 7.79841 8.00058C7.79841 8.08742 7.78128 8.17341 7.74798 8.25362C7.71469 8.33382 7.66589 8.40667 7.6044 8.46798L1.02359 15.026C0.910281 15.1351 0.758631 15.1954 0.601309 15.1938C0.443987 15.1922 0.293582 15.1289 0.18249 15.0175C0.0713984 14.9061 0.00850969 14.7555 0.00736964 14.5982C0.0062296 14.4409 0.0669294 14.2894 0.176395 14.1764L6.3744 7.99998L0.176395 1.82478C0.0637529 1.71243 0.000347705 1.55993 0.000122671 1.40083C-0.000102362 1.24173 0.0628713 1.08906 0.175195 0.976383Z" fill="#526B7A"/>
</svg>
