<svg width="20" height="20" viewBox="0 0 20 20" fill="none" xmlns="http://www.w3.org/2000/svg">
<path d="M7.69235 19.5L7.31157 16.4538C7.04362 16.3641 6.76894 16.2384 6.48752 16.0769C6.20611 15.9154 5.9545 15.7423 5.7327 15.5577L2.91155 16.75L0.603897 12.75L3.04427 10.9058C3.02119 10.7571 3.00484 10.6077 2.99522 10.4577C2.98561 10.3077 2.9808 10.1583 2.9808 10.0096C2.9808 9.86732 2.98561 9.72276 2.99522 9.57596C3.00484 9.42916 3.02119 9.26858 3.04427 9.09423L0.603897 7.25001L2.91155 3.26928L5.72307 4.45198C5.96411 4.26095 6.22148 4.08626 6.4952 3.92793C6.76893 3.76958 7.03785 3.64233 7.30195 3.54618L7.69235 0.500031H12.3076L12.6884 3.55581C12.9884 3.66477 13.2599 3.79201 13.5029 3.93753C13.7458 4.08305 13.991 4.25453 14.2384 4.45198L17.0884 3.26928L19.3961 7.25001L16.9173 9.12306C16.9532 9.28461 16.9727 9.43557 16.9759 9.57596C16.9791 9.71634 16.9807 9.85769 16.9807 10C16.9807 10.1359 16.9775 10.274 16.9711 10.4144C16.9647 10.5548 16.9416 10.7154 16.9019 10.8962L19.3615 12.75L17.0538 16.75L14.2384 15.548C13.991 15.7455 13.7384 15.9202 13.4807 16.0721C13.223 16.224 12.9589 16.3481 12.6884 16.4442L12.3076 19.5H7.69235ZM9 18H10.9654L11.325 15.3212C11.8352 15.1878 12.3016 14.9984 12.724 14.7529C13.1465 14.5074 13.5538 14.1917 13.9461 13.8058L16.4308 14.85L17.4154 13.15L15.2461 11.5154C15.3295 11.2564 15.3862 11.0026 15.4163 10.7539C15.4465 10.5051 15.4615 10.2539 15.4615 10C15.4615 9.73976 15.4465 9.48847 15.4163 9.24616C15.3862 9.00386 15.3295 8.75642 15.2461 8.50386L17.4346 6.85001L16.45 5.15001L13.9365 6.20963C13.6019 5.85193 13.201 5.53591 12.7336 5.26156C12.2663 4.98719 11.7936 4.79296 11.3154 4.67886L11 2.00001H9.01537L8.68462 4.66923C8.17436 4.78975 7.7032 4.97436 7.27115 5.22308C6.8391 5.4718 6.42692 5.79232 6.03462 6.18463L3.55 5.15001L2.56537 6.85001L4.725 8.45963C4.64166 8.6968 4.58333 8.94359 4.55 9.20001C4.51666 9.45642 4.5 9.7263 4.5 10.0096C4.5 10.2699 4.51666 10.525 4.55 10.775C4.58333 11.025 4.63845 11.2718 4.71537 11.5154L2.56537 13.15L3.55 14.85L6.025 13.8C6.40448 14.1898 6.81025 14.509 7.2423 14.7577C7.67435 15.0064 8.15191 15.1974 8.675 15.3308L9 18ZM10.0115 13C10.8436 13 11.5516 12.708 12.1355 12.124C12.7195 11.54 13.0115 10.832 13.0115 10C13.0115 9.16797 12.7195 8.45997 12.1355 7.87598C11.5516 7.29202 10.8436 7.00003 10.0115 7.00003C9.16924 7.00003 8.45867 7.29202 7.87982 7.87598C7.30099 8.45997 7.01157 9.16797 7.01157 10C7.01157 10.832 7.30099 11.54 7.87982 12.124C8.45867 12.708 9.16924 13 10.0115 13Z" fill="#98A4AE"/>
</svg>
