<svg width="10" height="19" viewBox="0 0 10 19" fill="none" xmlns="http://www.w3.org/2000/svg">
<path d="M9.16667 4.83329V13.5833C9.16667 14.7989 8.68378 15.9647 7.82424 16.8242C6.9647 17.6837 5.79891 18.1666 4.58333 18.1666C3.36776 18.1666 2.20197 17.6837 1.34243 16.8242C0.482886 15.9647 0 14.7989 0 13.5833V3.99996C0 3.1159 0.351189 2.26806 0.97631 1.64294C1.60143 1.01782 2.44928 0.666626 3.33333 0.666626C4.21739 0.666626 5.06523 1.01782 5.69036 1.64294C6.31548 2.26806 6.66667 3.1159 6.66667 3.99996V12.75C6.66667 13.3025 6.44717 13.8324 6.05647 14.2231C5.66577 14.6138 5.13587 14.8333 4.58333 14.8333C4.0308 14.8333 3.50089 14.6138 3.11019 14.2231C2.71949 13.8324 2.5 13.3025 2.5 12.75V4.83329H3.33333V12.75C3.33333 13.0815 3.46503 13.3994 3.69945 13.6338C3.93387 13.8683 4.25181 14 4.58333 14C4.91485 14 5.2328 13.8683 5.46722 13.6338C5.70164 13.3994 5.83333 13.0815 5.83333 12.75V3.99996C5.83333 3.33692 5.56994 2.70103 5.1011 2.23219C4.63226 1.76335 3.99637 1.49996 3.33333 1.49996C2.67029 1.49996 2.03441 1.76335 1.56557 2.23219C1.09673 2.70103 0.833333 3.33692 0.833333 3.99996V13.5833C0.833333 15.6666 2.5 17.3333 4.58333 17.3333C6.66667 17.3333 8.33333 15.6666 8.33333 13.5833V4.83329H9.16667Z" fill="#29343D"/>
</svg>
