<svg width="22" height="16" viewBox="0 0 22 16" fill="none" xmlns="http://www.w3.org/2000/svg">
<path d="M0.798126 15.3077V13.0846C0.798126 12.5692 0.931143 12.1093 1.19718 11.7048C1.46319 11.3003 1.81846 10.9856 2.26298 10.7607C3.21333 10.2959 4.16894 9.93752 5.12983 9.6856C6.09073 9.43369 7.14682 9.30773 8.2981 9.30773C9.44939 9.30773 10.5055 9.43369 11.4664 9.6856C12.4273 9.93752 13.3829 10.2959 14.3332 10.7607C14.7777 10.9856 15.133 11.3003 15.399 11.7048C15.665 12.1093 15.7981 12.5692 15.7981 13.0846V15.3077H0.798126ZM17.7981 15.3077V12.9615C17.7981 12.3051 17.6373 11.6796 17.3159 11.0848C16.9945 10.4901 16.5385 9.97974 15.9481 9.55388C16.6186 9.65388 17.2551 9.80869 17.8577 10.0183C18.4602 10.2279 19.0352 10.4757 19.5827 10.7616C20.0993 11.0372 20.4984 11.3621 20.7798 11.7362C21.0612 12.1103 21.2019 12.5187 21.2019 12.9615V15.3077H17.7981ZM8.2981 7.69228C7.33562 7.69228 6.51167 7.34958 5.82625 6.66418C5.14083 5.97876 4.79813 5.15481 4.79813 4.19233C4.79813 3.22983 5.14083 2.40588 5.82625 1.72048C6.51167 1.03506 7.33562 0.692352 8.2981 0.692352C9.26058 0.692352 10.0845 1.03506 10.77 1.72048C11.4554 2.40588 11.7981 3.22983 11.7981 4.19233C11.7981 5.15481 11.4554 5.97876 10.77 6.66418C10.0845 7.34958 9.26058 7.69228 8.2981 7.69228ZM16.9326 4.19233C16.9326 5.15481 16.5899 5.97876 15.9045 6.66418C15.2191 7.34958 14.3951 7.69228 13.4327 7.69228C13.3198 7.69228 13.1763 7.67946 13.0019 7.65383C12.8276 7.6282 12.684 7.6 12.5712 7.56923C12.9655 7.09511 13.2686 6.56914 13.4804 5.9913C13.6922 5.41347 13.7981 4.81341 13.7981 4.19113C13.7981 3.56886 13.69 2.97119 13.474 2.3981C13.258 1.82504 12.9571 1.29748 12.5712 0.815428C12.7147 0.764145 12.8583 0.730811 13.0019 0.715428C13.1455 0.700045 13.2891 0.692352 13.4327 0.692352C14.3951 0.692352 15.2191 1.03506 15.9045 1.72048C16.5899 2.40588 16.9326 3.22983 16.9326 4.19233ZM2.2981 13.8077H14.2981V13.0846C14.2981 12.8756 14.2459 12.6897 14.1414 12.5269C14.0369 12.3641 13.8712 12.2218 13.6443 12.1C12.8212 11.6756 11.9737 11.3542 11.102 11.1356C10.2302 10.917 9.29554 10.8077 8.2981 10.8077C7.30067 10.8077 6.36605 10.917 5.49425 11.1356C4.62247 11.3542 3.77503 11.6756 2.95195 12.1C2.72503 12.2218 2.55933 12.3641 2.45483 12.5269C2.35034 12.6897 2.2981 12.8756 2.2981 13.0846V13.8077ZM8.2981 6.19233C8.8481 6.19233 9.31894 5.99649 9.7106 5.60483C10.1023 5.21316 10.2981 4.74233 10.2981 4.19233C10.2981 3.64233 10.1023 3.17149 9.7106 2.77983C9.31894 2.38816 8.8481 2.19233 8.2981 2.19233C7.7481 2.19233 7.27727 2.38816 6.8856 2.77983C6.49393 3.17149 6.2981 3.64233 6.2981 4.19233C6.2981 4.74233 6.49393 5.21316 6.8856 5.60483C7.27727 5.99649 7.7481 6.19233 8.2981 6.19233Z" fill="#98A4AE"/>
</svg>
