<svg viewBox="0 0 227 54" fill="none" xmlns="http://www.w3.org/2000/svg">
<path d="M33.096 24.928C36.3813 25.8667 38.9627 27.4453 40.84 29.664C42.7173 31.8827 43.656 34.4427 43.656 37.344C43.656 40.032 42.568 42.5707 40.392 44.96C38.2587 47.3067 35.5707 49.184 32.328 50.592C29.128 52 26.0773 52.704 23.176 52.704C21.0427 52.704 18.952 52.5973 16.904 52.384C13.4907 52.1707 10.8453 52.064 8.968 52.064H0.84V50.08L6.856 45.344V6.432L0.2 4.256L1.48 1.696H8.904C12.7867 1.696 16.6053 1.568 20.36 1.312C23.2613 1.14133 25.3947 1.056 26.76 1.056C29.6187 1.056 32.136 1.61066 34.312 2.72C36.488 3.82933 38.152 5.344 39.304 7.264C40.4987 9.14133 41.096 11.2533 41.096 13.6C41.096 15.7333 40.3493 17.7813 38.856 19.744C37.4053 21.664 35.4853 23.3493 33.096 24.8V24.928ZM32.456 16.8C32.456 13.4293 31.56 10.6773 29.768 8.544C27.976 6.41066 25.3093 5.344 21.768 5.344C19.208 5.344 16.904 6.06933 14.856 7.52V24.48H24.008C26.6533 24.48 28.7227 23.8187 30.216 22.496C31.7093 21.1307 32.456 19.2107 32.456 16.736V16.8ZM24.968 48.032C28.04 48.032 30.472 47.264 32.264 45.728C34.0987 44.192 35.016 42.1227 35.016 39.52C35.016 36.192 34.0347 33.504 32.072 31.456C30.152 29.408 27.272 28.32 23.432 28.192C23.1333 28.2347 22.728 28.256 22.216 28.256H14.856V46.368C17.7147 47.52 21.0853 48.096 24.968 48.096V48.032ZM79.5 0.415997C84.0227 0.415997 88.012 1.504 91.468 3.68C94.9667 5.856 97.676 8.864 99.596 12.704C101.516 16.544 102.476 20.896 102.476 25.76C102.476 30.752 101.025 35.36 98.124 39.584C95.2227 43.808 91.6173 47.1573 87.308 49.632C82.9987 52.064 78.8813 53.28 74.956 53.28C70.4333 53.28 66.4227 52.2133 62.924 50.08C59.468 47.904 56.78 44.896 54.86 41.056C52.94 37.216 51.98 32.864 51.98 28C51.98 23.008 53.4307 18.4 56.332 14.176C59.2333 9.90933 62.8387 6.56 67.148 4.128C71.4573 1.65333 75.5747 0.415997 79.5 0.415997ZM75.788 5.792C72.972 5.792 70.3907 6.624 68.044 8.288C65.74 9.90933 63.9267 12.192 62.604 15.136C61.2813 18.0373 60.62 21.3013 60.62 24.928C60.62 29.1093 61.2813 32.9493 62.604 36.448C63.9267 39.904 65.932 42.6773 68.62 44.768C71.3507 46.8587 74.7 47.904 78.668 47.904C81.484 47.904 84.044 47.0933 86.348 45.472C88.6947 43.808 90.5293 41.5253 91.852 38.624C93.1747 35.68 93.836 32.3947 93.836 28.768C93.836 24.544 93.1747 20.704 91.852 17.248C90.5293 13.7493 88.524 10.976 85.836 8.928C83.148 6.83733 79.7987 5.792 75.788 5.792ZM157.498 52.128H145.594L131.514 29.408L128.506 27.232L129.466 25.312H133.05C135.951 25.312 138.234 24.5867 139.898 23.136C141.604 21.6427 142.458 19.616 142.458 17.056C142.458 13.6853 141.519 10.8907 139.642 8.672C137.764 6.41066 135.034 5.28 131.45 5.28C129.06 5.28 126.863 5.984 124.858 7.392V47.264L131.578 49.568L130.298 52.128H110.842V50.144L116.858 45.408V6.496L110.202 4.32L111.482 1.76H118.906C122.788 1.76 126.607 1.632 130.362 1.376C133.092 1.20533 135.119 1.12 136.442 1.12C139.3 1.12 141.839 1.696 144.058 2.848C146.319 4 148.047 5.55733 149.242 7.52C150.479 9.48266 151.098 11.6373 151.098 13.984C151.098 16.1173 150.436 18.1653 149.114 20.128C147.791 22.048 146.042 23.7333 143.866 25.184C141.732 26.592 139.471 27.6587 137.082 28.384L141.242 29.792L151.162 45.792L158.778 49.568L157.498 52.128ZM181.984 52H162.528V50.016L168.544 45.28V6.496L161.888 4.256L163.168 1.696H182.624V3.68L176.544 8.416V47.136L183.264 49.44L181.984 52ZM218.566 40.672C218.566 39.3493 218.032 38.112 216.966 36.96C215.899 35.808 214.555 34.7627 212.934 33.824C211.355 32.8427 209.2 31.648 206.47 30.24C203.227 28.5333 200.624 27.0827 198.662 25.888C196.699 24.6507 195.014 23.2 193.606 21.536C192.24 19.872 191.558 18.0373 191.558 16.032C191.558 13.8987 192.454 11.616 194.246 9.184C196.038 6.70933 198.214 4.64 200.774 2.976C203.376 1.26933 205.766 0.415997 207.942 0.415997C210.587 0.415997 213.659 0.735998 217.158 1.376C220.656 2.016 223.216 2.69866 224.838 3.424V15.84H222.406C220.315 12.384 218.011 9.696 215.494 7.776C213.019 5.856 210.416 4.896 207.686 4.896C205.254 4.896 203.312 5.664 201.862 7.2C200.454 8.69333 199.75 10.656 199.75 13.088C199.75 14.496 200.283 15.8187 201.35 17.056C202.459 18.2507 203.803 19.3173 205.382 20.256C207.003 21.1947 209.243 22.4107 212.102 23.904C215.259 25.4827 217.819 26.8907 219.782 28.128C221.744 29.3227 223.387 30.7307 224.71 32.352C226.075 33.9307 226.758 35.7227 226.758 37.728C226.758 39.8613 225.798 42.1653 223.878 44.64C221.958 47.072 219.611 49.1413 216.838 50.848C214.107 52.512 211.611 53.344 209.35 53.344C206.576 53.344 203.27 53.024 199.43 52.384C195.632 51.744 192.902 51.0613 191.238 50.336V37.92H193.67C195.846 41.376 198.32 44.064 201.094 45.984C203.867 47.904 206.726 48.864 209.67 48.864C211.419 48.864 212.976 48.48 214.342 47.712C215.707 46.944 216.752 45.9413 217.478 44.704C218.203 43.424 218.566 42.08 218.566 40.672Z" fill="white"/>
</svg>
