<svg width="26" height="30" viewBox="0 0 26 30" fill="none" xmlns="http://www.w3.org/2000/svg">
<g clip-path="url(#clip0_20_1854)">
<path fill-rule="evenodd" clip-rule="evenodd" d="M0 11.4444V22.8222H3.55556C3.92908 22.8222 4.29896 22.8958 4.6441 23.0388C4.98915 23.1817 5.30278 23.3912 5.56684 23.6554C5.83099 23.9195 6.04054 24.2331 6.18351 24.5782C6.32639 24.9233 6.4 25.2931 6.4 25.6667V29.2222H14.9333L25.6 18.5556V7.17778H22.0444C21.6709 7.17778 21.301 7.10421 20.9559 6.96127C20.6108 6.81832 20.2972 6.60879 20.0331 6.34466C19.769 6.08053 19.5595 5.76695 19.4165 5.42185C19.2736 5.07676 19.2 4.70688 19.2 4.33333V0.777779H10.6667L0 11.4444ZM12.0889 22.1111H7.11111V14.2889L13.5111 7.88889H18.4889V15.7111L12.0889 22.1111Z" fill="#2555E7"/>
</g>
<defs>
<clipPath id="clip0_20_1854">
<rect width="25.6" height="28.4444" fill="white" transform="translate(0 0.777779)"/>
</clipPath>
</defs>
</svg>
