<svg viewBox="0 0 444 54" fill="none" xmlns="http://www.w3.org/2000/svg">
<path d="M21.576 49.44L20.296 52H0.84V50.016L6.856 45.28V6.496L0.2 4.256L1.48 1.696H20.936V3.68L14.856 8.416V47.136L21.576 49.44ZM49.928 52H38.344L18.504 26.784L38.152 9.632L30.728 4.256L32.008 1.696H49.224V3.68L26.184 23.776L43.784 45.792L51.208 49.44L49.928 52ZM106.463 52H87.0065V50.016L93.0225 45.344L88.0945 33.504H66.5905L61.3425 45.6L72.6065 49.44L71.3265 52H51.8705V50.016L57.8865 45.28L75.9985 3.744L82.6545 0.479996L101.343 45.536L107.743 49.44L106.463 52ZM77.5985 8.16L67.8705 30.624H86.9425L77.5985 8.16ZM158.31 52.128H146.406L132.326 29.408L129.318 27.232L130.278 25.312H133.862C136.763 25.312 139.046 24.5867 140.71 23.136C142.417 21.6427 143.27 19.616 143.27 17.056C143.27 13.6853 142.331 10.8907 140.454 8.672C138.577 6.41066 135.846 5.28 132.262 5.28C129.873 5.28 127.675 5.984 125.67 7.392V47.264L132.39 49.568L131.11 52.128H111.654V50.144L117.67 45.408V6.496L111.014 4.32L112.294 1.76H119.718C123.601 1.76 127.419 1.632 131.174 1.376C133.905 1.20533 135.931 1.12 137.254 1.12C140.113 1.12 142.651 1.696 144.87 2.848C147.131 4 148.859 5.55733 150.054 7.52C151.291 9.48266 151.91 11.6373 151.91 13.984C151.91 16.1173 151.249 18.1653 149.926 20.128C148.603 22.048 146.854 23.7333 144.678 25.184C142.545 26.592 140.283 27.6587 137.894 28.384L142.054 29.792L151.974 45.792L159.59 49.568L158.31 52.128ZM213.9 52H194.444V50.016L200.46 45.344L195.532 33.504H174.028L168.78 45.6L180.044 49.44L178.764 52H159.308V50.016L165.324 45.28L183.436 3.744L190.092 0.479996L208.78 45.536L215.18 49.44L213.9 52ZM185.036 8.16L175.308 30.624H194.38L185.036 8.16ZM258.206 16.544L256.286 17.184L247.774 4.576H239.966V47.136L246.686 49.44L245.406 52H225.95V50.016L231.966 45.28V4.576H224.35L215.838 17.184L213.918 16.544V0.543999L217.374 1.696H254.75L258.206 0.543999V16.544ZM294.688 0.415997C299.21 0.415997 303.2 1.504 306.656 3.68C310.154 5.856 312.864 8.864 314.784 12.704C316.704 16.544 317.664 20.896 317.664 25.76C317.664 30.752 316.213 35.36 313.312 39.584C310.41 43.808 306.805 47.1573 302.496 49.632C298.186 52.064 294.069 53.28 290.144 53.28C285.621 53.28 281.61 52.2133 278.112 50.08C274.656 47.904 271.968 44.896 270.048 41.056C268.128 37.216 267.168 32.864 267.168 28C267.168 23.008 268.618 18.4 271.52 14.176C274.421 9.90933 278.026 6.56 282.336 4.128C286.645 1.65333 290.762 0.415997 294.688 0.415997ZM290.976 5.792C288.16 5.792 285.578 6.624 283.232 8.288C280.928 9.90933 279.114 12.192 277.792 15.136C276.469 18.0373 275.808 21.3013 275.808 24.928C275.808 29.1093 276.469 32.9493 277.792 36.448C279.114 39.904 281.12 42.6773 283.808 44.768C286.538 46.8587 289.888 47.904 293.856 47.904C296.672 47.904 299.232 47.0933 301.536 45.472C303.882 43.808 305.717 41.5253 307.04 38.624C308.362 35.68 309.024 32.3947 309.024 28.768C309.024 24.544 308.362 20.704 307.04 17.248C305.717 13.7493 303.712 10.976 301.024 8.928C298.336 6.83733 294.986 5.792 290.976 5.792ZM354.253 40.672C354.253 39.3493 353.72 38.112 352.653 36.96C351.586 35.808 350.242 34.7627 348.621 33.824C347.042 32.8427 344.888 31.648 342.157 30.24C338.914 28.5333 336.312 27.0827 334.349 25.888C332.386 24.6507 330.701 23.2 329.293 21.536C327.928 19.872 327.245 18.0373 327.245 16.032C327.245 13.8987 328.141 11.616 329.933 9.184C331.725 6.70933 333.901 4.64 336.461 2.976C339.064 1.26933 341.453 0.415997 343.629 0.415997C346.274 0.415997 349.346 0.735998 352.845 1.376C356.344 2.016 358.904 2.69866 360.525 3.424V15.84H358.093C356.002 12.384 353.698 9.696 351.181 7.776C348.706 5.856 346.104 4.896 343.373 4.896C340.941 4.896 339 5.664 337.549 7.2C336.141 8.69333 335.437 10.656 335.437 13.088C335.437 14.496 335.97 15.8187 337.037 17.056C338.146 18.2507 339.49 19.3173 341.069 20.256C342.69 21.1947 344.93 22.4107 347.789 23.904C350.946 25.4827 353.506 26.8907 355.469 28.128C357.432 29.3227 359.074 30.7307 360.397 32.352C361.762 33.9307 362.445 35.7227 362.445 37.728C362.445 39.8613 361.485 42.1653 359.565 44.64C357.645 47.072 355.298 49.1413 352.525 50.848C349.794 52.512 347.298 53.344 345.037 53.344C342.264 53.344 338.957 53.024 335.117 52.384C331.32 51.744 328.589 51.0613 326.925 50.336V37.92H329.357C331.533 41.376 334.008 44.064 336.781 45.984C339.554 47.904 342.413 48.864 345.357 48.864C347.106 48.864 348.664 48.48 350.029 47.712C351.394 46.944 352.44 45.9413 353.165 44.704C353.89 43.424 354.253 42.08 354.253 40.672ZM390.234 52H370.778V50.016L376.794 45.28V6.496L370.138 4.256L371.418 1.696H390.874V3.68L384.794 8.416V47.136L391.514 49.44L390.234 52ZM426.688 0.415997C428.949 0.415997 431.552 0.735998 434.496 1.376C437.482 2.016 439.658 2.69866 441.024 3.424V15.84H438.592C434.666 9.14133 429.461 5.792 422.976 5.792C420.16 5.792 417.578 6.624 415.232 8.288C412.928 9.90933 411.114 12.192 409.792 15.136C408.469 18.0373 407.808 21.3013 407.808 24.928C407.808 29.1093 408.448 32.928 409.728 36.384C411.05 39.84 413.034 42.6133 415.68 44.704C418.368 46.7947 421.674 47.84 425.6 47.84C429.226 47.84 434.432 45.1093 441.216 39.648L443.136 42.72L431.36 51.872C429.781 52.4267 428.245 52.7893 426.752 52.96C425.301 53.1733 423.722 53.28 422.016 53.28C417.536 53.28 413.568 52.192 410.112 50.016C406.656 47.84 403.968 44.8533 402.048 41.056C400.128 37.216 399.168 32.864 399.168 28C399.168 23.008 400.618 18.4 403.52 14.176C406.421 9.90933 410.026 6.56 414.336 4.128C418.645 1.65333 422.762 0.415997 426.688 0.415997Z" fill="white"/>
</svg>
